<svg width="453" height="30" viewBox="0 0 453 30" fill="none" xmlns="http://www.w3.org/2000/svg">
<path d="M0.875 0.875H14.2344C17.5469 0.875 20.4531 1.67188 22.9531 3.26562C26.8906 5.76562 28.8594 9.67188 28.8594 14.9844C28.8594 19.1094 27.5 22.4688 24.7812 25.0625C22 27.6875 18.4844 29 14.2344 29H0.875V27.7812H4.625V2.09375H0.875V0.875ZM14.2344 2.09375H9.64062V27.7812H14.2812C20 27.625 22.9688 23.2812 23.1875 14.75C23.1875 12.2812 22.9531 10.1875 22.4844 8.46875C21.3281 4.21875 18.5781 2.09375 14.2344 2.09375ZM72.4062 29H61.2969V27.7812H64.4375L60.9219 18.6875H51.3125L47.8438 27.7812H50.2812C50.4688 27.7812 50.6562 27.7969 50.8438 27.8281C51.25 27.9219 51.4531 28.3125 51.4531 29H43.0156V27.7812H45.9688L56.375 0.875H58.8594L69.7344 27.7812H71.2344C71.3906 27.7812 71.5469 27.7969 71.7031 27.8281C72.1719 27.8906 72.4062 28.2812 72.4062 29ZM60.3594 17.3281L56.0938 6.21875L51.8281 17.3281H60.3594ZM100.297 29H85.9062V27.7812H89.6562V2.09375H85.9062V0.875H108.266L108.453 9.64062H107.375L106.531 6.92188C105.625 3.73438 103.891 2.125 101.328 2.09375H94.6719V13.8125H104.094V15.1719H94.6719V27.7812H100.297V29ZM141.031 29H127.062V27.7812H131.516V2.09375H129.688C127.156 2.125 125.422 3.71875 124.484 6.875L123.453 10.4375H122.094L122.281 0.875H145.906L146.141 10.4375H144.781L143.75 6.875C142.844 3.71875 141.094 2.125 138.5 2.09375H136.531V27.7812H139.766C140.359 27.8438 140.781 28.25 141.031 29ZM188.797 29H177.688V27.7812H180.828L177.312 18.6875H167.703L164.234 27.7812H166.672C166.859 27.7812 167.047 27.7969 167.234 27.8281C167.641 27.9219 167.844 28.3125 167.844 29H159.406V27.7812H162.359L172.766 0.875H175.25L186.125 27.7812H187.625C187.781 27.7812 187.938 27.7969 188.094 27.8281C188.562 27.8906 188.797 28.2812 188.797 29ZM176.75 17.3281L172.484 6.21875L168.219 17.3281H176.75ZM214.812 29H202.297V27.7812H206.047V2.09375H202.297V0.875H216.875C219.344 0.875 221.438 1.45313 223.156 2.60938C225.188 4.01562 226.203 5.875 226.203 8.1875C226.203 9.03125 226.062 9.85938 225.781 10.6719C224.844 13.1719 222.781 14.8281 219.594 15.6406L227.047 27.7812H228.359C228.547 27.7812 228.719 27.7969 228.875 27.8281C229.312 27.8906 229.531 28.2812 229.531 29H221.984L214.672 16.1094H211.062V27.7812H214.812V29ZM214.906 2.09375H211.062V14.75H215.141C216.391 14.75 217.484 14.3906 218.422 13.6719C219.953 12.4531 220.719 10.6719 220.719 8.32812C220.719 7.35938 220.547 6.4375 220.203 5.5625C219.297 3.25 217.531 2.09375 214.906 2.09375ZM282.875 29H268.906V27.7812H273.359V2.09375H271.531C269 2.125 267.266 3.71875 266.328 6.875L265.297 10.4375H263.938L264.125 0.875H287.75L287.984 10.4375H286.625L285.594 6.875C284.688 3.71875 282.938 2.125 280.344 2.09375H278.375V27.7812H281.609C282.203 27.8438 282.625 28.25 282.875 29ZM301.719 2.09375V0.875H314.234V2.09375H310.531V18.2188C310.531 20.0938 310.703 21.7031 311.047 23.0469C311.953 26.4219 314.188 28.1094 317.75 28.1094C322.875 28.0781 325.453 24.8125 325.484 18.3125V2.09375H321.734V0.875H330.922V2.09375H327.172V18.0312C327.172 20 326.969 21.7031 326.562 23.1406C325.312 27.3594 322.047 29.4688 316.766 29.4688C309.297 29.4375 305.531 25.7969 305.469 18.5469V2.09375H301.719ZM362.094 16.25H374.516V17.4688H371.188V29L366.5 27.7344C364.5 28.8906 362.188 29.4688 359.562 29.4688C356.344 29.4688 353.469 28.5469 350.938 26.7031C347.219 23.9844 345.359 20.0156 345.359 14.7969C345.359 10.3906 346.766 6.85938 349.578 4.20312C352.234 1.67188 355.547 0.40625 359.516 0.40625C361.797 0.40625 363.953 0.875 365.984 1.8125L370.203 0.96875L370.438 10.3906H369.125C368.594 8.26562 367.938 6.5625 367.156 5.28125C365.656 2.9375 363.281 1.76562 360.031 1.76562C359.719 1.76562 359.406 1.78125 359.094 1.8125C353.75 2.28125 351.078 6.67188 351.078 14.9844C351.078 16.1406 351.125 17.2188 351.219 18.2188C351.875 24.75 354.781 28.0156 359.938 28.0156C362.406 28.0156 364.484 27.1875 366.172 25.5312V17.4688H362.094V16.25ZM417.078 29H405.969V27.7812H409.109L405.594 18.6875H395.984L392.516 27.7812H394.953C395.141 27.7812 395.328 27.7969 395.516 27.8281C395.922 27.9219 396.125 28.3125 396.125 29H387.688V27.7812H390.641L401.047 0.875H403.531L414.406 27.7812H415.906C416.062 27.7812 416.219 27.7969 416.375 27.8281C416.844 27.8906 417.078 28.2812 417.078 29ZM405.031 17.3281L400.766 6.21875L396.5 17.3281H405.031ZM452.469 21.4531C452.469 23.4219 451.766 25.1094 450.359 26.5156C448.328 28.4844 445.438 29.4688 441.688 29.4688C438.469 29.4688 435.672 28.6719 433.297 27.0781C433.297 27.6719 433.266 28.1094 433.203 28.3906C433.047 28.8594 432.578 29.0938 431.797 29.0938V19.2969H433.391C433.453 20.2969 433.609 21.2344 433.859 22.1094C434.891 26.1406 437.391 28.1562 441.359 28.1562C442.453 28.1562 443.469 27.9531 444.406 27.5469C446.406 26.6719 447.406 25.1406 447.406 22.9531C447.406 22.1719 447.234 21.4531 446.891 20.7969C446.172 19.4844 444.438 18.1719 441.688 16.8594C438.656 15.4531 436.906 14.6094 436.438 14.3281C433.5 12.6406 432.031 10.4844 432.031 7.85938C432.031 6.07812 432.672 4.54688 433.953 3.26562C435.828 1.35938 438.516 0.40625 442.016 0.40625C444.828 0.40625 447.422 1.01562 449.797 2.23438C449.797 1.95312 449.812 1.70312 449.844 1.48438C449.969 0.921875 450.453 0.640625 451.297 0.640625V8.9375H449.703C449.703 7.21875 449.281 5.75 448.438 4.53125C447.094 2.6875 445.125 1.76562 442.531 1.76562C441.625 1.76562 440.781 1.90625 440 2.1875C438.094 2.9375 437.141 4.29688 437.141 6.26562C437.141 7.04688 437.312 7.75 437.656 8.375C438.344 9.6875 440.047 10.9688 442.766 12.2188C445.797 13.625 447.562 14.4844 448.062 14.7969C451 16.5156 452.469 18.7344 452.469 21.4531Z" fill="white"/>
</svg>
